<svg xmlns="http://www.w3.org/2000/svg" width="71" height="70" viewBox="0 0 71 70"><title>Fill 41</title><path fill="#000" fill-rule="evenodd" d="M70.566 32.39l-.015-.1c-.06-.83-.141-1.656-.263-2.474l-.04-.26C67.604 12.709 52.74 0 35.672 0c-19.3 0-35 15.701-35 35.002 0 2.405.25 4.824.747 7.188C4.798 58.304 19.203 70 35.673 70c11.75 0 22.615-5.98 29.064-15.621 1.618-3.044.175-3.998.175-3.998-.284-.354-.995.035-1.64.517l-2.238 2.289-.003-.01c-1.533 1.887-3.117 3.62-4.757 5.132-5.984 5.05-10.99 6.596-12.362 6.944-2.94.558-5.798.84-8.494.84-24.926 0-31.351-23.694-31.607-24.684a32.662 32.662 0 0 1-.638-6.407c0-17.923 14.58-32.503 32.5-32.503s32.5 14.58 32.5 32.503c0 .59-.021 1.175-.049 1.704-.286 2.107-1.09 3.117-1.131 3.166-.517.676-2.095 2.734-3.488 3.033-.488 0-1.647-.657-1.862-6.746-.06-2.494-.17-3.561-1.028-4.049-.241-.18-.53-.28-.811-.28-1.089 0-2.113.354-5.416 4.945a295.9 295.9 0 0 0-1.512 2.154c-1 1.437-1.84 2.642-2.461 3.314.098-1.026.565-3.167 2.04-7.629 2.664-7.817 3.081-9.215 3.434-11.49.087-.465.13-.915.13-1.375 0-1.906-.85-3.092-2.218-3.092-.61 0-1.273.25-2.094.785-1.436.964-3.388 2.993-5.526 5.656l-1.778 2.298c-.39.527-.785 1.07-1.18 1.629l.207-.37-.003.004.035-.061c.238-.426.46-.815.652-1.14l1.664-2.912c-.029-.701-.536-1.226-1.216-1.226-.287 0-.551.07-.735.19-1.65.822-5.795 8.364-7.783 13.047-1.777 4.252-2.88 8.203-2.88 10.313 0 1.564.633 1.953.981 2.036.156.053.281.063.378.063h.064l.306-.06c.57-.188.876-.694.842-1.369v-.233c0-.346.126-1.12.264-1.622.194-.678 2.37-4.846 3.921-7.412 4.851-8.053 10.288-14.92 13.219-16.698l.046-.025c-.01 1.197-.53 2.911-2.73 9.007-1.843 5.15-2.777 8.96-2.777 11.33 0 1.655.448 2.671 1.359 3.103.251.13.522.192.83.192 1.3 0 2.536-1.241 5.508-5.537 1.941-2.814 3.084-4.323 3.89-5.123.012.416.012.91.012 1.29.06 2.579.121 3.533.3 4.644.698 4.01 2.633 4.61 3.724 4.61.608 0 1.26-.171 1.85-.478.065-.025 6.589-2.65 5.415-12.199z"/></svg>