<?xml version="1.0" encoding="UTF-8"?>
<svg width="56px" height="57px" viewBox="0 0 56 57" version="1.1" xmlns="http://www.w3.org/2000/svg" xmlns:xlink="http://www.w3.org/1999/xlink">
    <title>icon</title>
    <g id="Page-1" stroke="none" stroke-width="1" fill="none" fill-rule="evenodd">
        <g id="Template-4" transform="translate(-199.000000, -272.000000)">
            <g id="Group-33" transform="translate(200.000000, 272.688642)">
                <path d="M16.6446431,39.7658795 L16.6446431,45.3887166 C16.6446431,46.9010866 17.8770356,48.1264501 19.3971161,48.1264501 L27.273543,48.1217239 L27.2787266,55 C28.3487008,55 29.3992366,54.9441454 29.3992366,54.9441454 C43.7127873,53.8936498 55,42.0189671 55,27.5139636 C55,12.3185117 42.6147355,0 27.3374736,0 C27.3305622,0 27.3240828,0 27.3171713,0 C27.3063723,0.0055854575 27.2960051,0.0103116138 27.285206,0.0158970713 C23.4748538,1.90592996 19.4731417,5.46472569 18.4221739,12.1715712 L17.3029558,21.1822031 C17.1500406,22.4874815 16.5582503,23.4219715 16.347452,23.818539 L11.4589183,33.0104835 C10.4895916,34.8339205 9.17944559,37.0285757 13.8921701,37.0285757 C15.4122505,37.0285757 16.6446431,38.2543688 16.6446431,39.7658795 Z" id="Fill-27" fill="#E2E0D5"></path>
                <path d="M42.5359021,32.883135 L37.7601109,23.9038676 C37.5540642,23.5158932 36.9756647,22.6033153 36.8266372,21.3281124 L35.733337,12.5254314 C34.7065592,5.97368976 30.7972873,2.49652764 27.0750557,0.650319113 C27.0646885,0.644733656 27.0543214,0.64043715 27.0439543,0.634851692 C27.0370429,0.634851692 27.0305634,0.634851692 27.023652,0.634851692 C12.0993045,0.634851692 0,12.6689347 0,27.5137918 C0,41.6836678 11.0267386,53.2842334 25.009405,54.3106686 C25.009405,54.3106686 26.0357509,54.3652342 27.0815351,54.3652342 L27.0862867,47.6454992 L34.7808569,47.6502254 C36.2659483,47.6502254 37.4698313,46.4527892 37.4698313,44.9760802 L37.4698313,39.4829976 C37.4698313,38.0058589 38.6741462,36.8084227 40.1588056,36.8084227 C44.7626752,36.8084227 43.4831986,34.6644663 42.5359021,32.883135 Z" id="Stroke-29" stroke="#000000" stroke-width="2"></path>
            </g>
        </g>
    </g>
</svg>