<svg xmlns="http://www.w3.org/2000/svg" xmlns:xlink="http://www.w3.org/1999/xlink" width="231" height="70" viewBox="0 0 231 70"><title>Muir Edison</title><defs><path id="a" d="M0 70h229.865V0H0z"/></defs><g fill="none" fill-rule="evenodd"><path fill="currentColor" d="M88.532 3.358l7.796 15.472 7.767-15.472h2.985v21.319h-2.254l-.03-17.726-7.766 15.473h-1.462L87.832 6.951v17.726h-2.316V3.358z"/><g transform="translate(.673)"><path fill="currentColor" d="M127.484 22.545c4.051 0 6.488-2.437 6.488-6.64V3.359h2.437v12.548c0 5.574-3.35 8.863-8.925 8.863-5.604 0-8.985-3.289-8.985-8.863V3.358h2.436v12.548c0 4.202 2.498 6.639 6.55 6.639"/><mask id="b" fill="currentColor"><use xlink:href="#a"/></mask><path fill="currentColor" d="M148.469 24.677h2.436V3.358h-2.436zM171.555 15.663c3.868 0 6.06-1.737 6.06-5.087 0-3.258-2.192-4.964-6.06-4.964h-5.665v10.051h5.665zm5.848 9.014l-4.477-6.822c-.427.03-.883.061-1.37.061h-5.666v6.761h-2.437V3.358h8.102c5.33 0 8.407 2.619 8.407 7.157 0 3.503-1.737 5.909-4.814 6.883l5.026 7.28h-2.771zM99.311 31.976v2.253H87.28v7.156h10.751v2.225H87.28v7.431h12.426v2.254H84.843V31.976zM127.878 42.666c0-4.812-3.776-8.437-8.557-8.437h-6.123V51.04h6.214c4.751 0 8.466-3.594 8.466-8.375m2.467-.03c0 6.059-4.781 10.658-11.055 10.658h-8.528V31.975h8.62c6.213 0 10.963 4.599 10.963 10.66M140.884 53.295h2.437V31.976h-2.437zM162.054 34.26c-2.742 0-4.539 1.096-4.539 2.923 0 5.544 12 2.65 11.969 10.386 0 3.533-3.136 5.817-7.705 5.817-3.106 0-6.152-1.34-8.162-3.258l1.097-2.102c1.98 1.888 4.69 2.985 7.095 2.985 3.077 0 4.995-1.25 4.995-3.321.031-5.695-11.968-2.68-11.968-10.324 0-3.35 2.953-5.482 7.369-5.482 2.467 0 4.995.791 6.761 1.98l-1.034 2.161c-1.919-1.248-4.174-1.766-5.878-1.766M181.026 42.635c0 4.72 3.96 8.527 8.712 8.527 4.751 0 8.65-3.807 8.65-8.527 0-4.72-3.899-8.467-8.65-8.467-4.752 0-8.712 3.747-8.712 8.467m19.86 0c0 6-4.935 10.751-11.148 10.751-6.244 0-11.179-4.75-11.179-10.75 0-6.001 4.935-10.722 11.18-10.722 6.212 0 11.146 4.72 11.146 10.721M213.952 31.976l12.792 17.329V31.976h2.406v21.319h-2.497l-12.793-17.3v17.3h-2.436V31.976zM88.836 63.295L87.56 60.44l-1.275 2.855h2.55zm.205.455h-2.96l-.638 1.42h-.585l2.429-5.314h.555l2.428 5.313h-.592l-.637-1.419zM93.277 64.683c1.411 0 2.322-.895 2.322-2.17 0-1.276-.91-2.171-2.322-2.171h-1.572v4.341h1.572zm-2.134-4.827h2.164c1.7 0 2.846 1.093 2.846 2.657s-1.146 2.656-2.846 2.656h-2.164v-5.313zM101.662 59.856l-2.353 5.313h-.554l-2.353-5.313h.607l2.034 4.615 2.05-4.615zM102.419 65.169h.562v-5.313h-.562zM104.202 64.525l.22-.434c.379.373 1.054.646 1.752.646.995 0 1.428-.419 1.428-.941 0-1.457-3.272-.562-3.272-2.528 0-.782.607-1.457 1.959-1.457.598 0 1.222.174 1.646.47l-.189.447a2.733 2.733 0 00-1.457-.44c-.972 0-1.404.433-1.404.965 0 1.457 3.27.577 3.27 2.512 0 .783-.621 1.45-1.98 1.45-.797 0-1.579-.281-1.973-.69M113.917 62.513c0-1.268-.948-2.202-2.224-2.202-1.283 0-2.239.934-2.239 2.202 0 1.268.956 2.2 2.24 2.2 1.275 0 2.223-.932 2.223-2.2m-5.018 0c0-1.55 1.186-2.702 2.794-2.702 1.594 0 2.785 1.145 2.785 2.702 0 1.556-1.191 2.702-2.785 2.702-1.608 0-2.794-1.153-2.794-2.702M119.328 61.677c0-.85-.562-1.335-1.625-1.335h-1.412v2.664h1.412c1.063 0 1.625-.493 1.625-1.329zm.03 3.492l-1.214-1.707a3.783 3.783 0 01-.426.022h-1.427v1.685h-.562v-5.313h1.99c1.351 0 2.17.683 2.17 1.821 0 .836-.44 1.42-1.215 1.67l1.299 1.822h-.616zM122.687 64.525l.22-.434c.38.373 1.054.646 1.752.646.995 0 1.429-.419 1.429-.941 0-1.457-3.272-.562-3.272-2.528 0-.782.608-1.457 1.958-1.457.599 0 1.222.174 1.647.47l-.19.447a2.733 2.733 0 00-1.457-.44c-.971 0-1.404.433-1.404.965 0 1.457 3.27.577 3.27 2.512 0 .783-.621 1.45-1.98 1.45-.796 0-1.579-.281-1.973-.69M128.813 60.342h-1.867v-.486h4.296v.486h-1.867v4.827h-.562zM135.73 61.677c0-.85-.562-1.335-1.625-1.335h-1.412v2.664h1.412c1.063 0 1.625-.493 1.625-1.329zm.03 3.492l-1.215-1.707a3.737 3.737 0 01-.425.022h-1.427v1.685h-.562v-5.313h1.989c1.352 0 2.17.683 2.17 1.821 0 .836-.44 1.42-1.214 1.67l1.299 1.822h-.615zM140.739 63.295l-1.276-2.855-1.275 2.855h2.551zm.205.455h-2.96l-.638 1.42h-.585l2.429-5.314h.555l2.428 5.313h-.592l-.637-1.419zM143.812 60.342h-1.866v-.486h4.295v.486h-1.866v4.827h-.563zM150.888 64.683v.486h-3.758v-5.313h3.644v.486h-3.082v1.89h2.749v.478h-2.749v1.973zM155.914 62.513h.54v2.027c-.502.447-1.215.675-1.951.675-1.618 0-2.802-1.146-2.802-2.702 0-1.557 1.184-2.702 2.81-2.702.803 0 1.502.258 1.973.766l-.35.356c-.447-.44-.98-.622-1.6-.622-1.315 0-2.279.934-2.279 2.202 0 1.26.964 2.2 2.27 2.2.51 0 .98-.114 1.39-.408v-1.792zM158.03 65.169h.562v-5.313h-.562zM159.848 62.513c0-1.557 1.185-2.702 2.786-2.702.774 0 1.473.258 1.943.774l-.357.356c-.433-.44-.964-.63-1.57-.63-1.284 0-2.248.942-2.248 2.202s.964 2.2 2.247 2.2c.607 0 1.138-.188 1.57-.636l.358.356c-.47.516-1.169.782-1.95.782-1.594 0-2.78-1.146-2.78-2.702M167.754 66.642h.501v-7.105h-.501zM179.269 59.856l-1.79 5.313h-.593l-1.555-4.531-1.564 4.531h-.585l-1.79-5.313h.576l1.533 4.569 1.587-4.569h.523l1.564 4.592 1.557-4.592zM184.04 64.683v.486h-3.758v-5.313h3.644v.486h-3.082v1.89h2.749v.478h-2.749v1.973zM189.232 63.704c0-.69-.507-.994-1.442-.994h-1.874v1.996h1.874c.935 0 1.442-.304 1.442-1.002zm-3.316-3.385v1.928h1.693c.85 0 1.344-.327 1.344-.964s-.494-.964-1.344-.964h-1.693zm3.878 3.431c0 .903-.667 1.42-1.996 1.42h-2.444v-5.314h2.293c1.184 0 1.866.501 1.866 1.366 0 .608-.325 1.01-.81 1.207.682.153 1.091.6 1.091 1.321zM193.731 60.94c0 .312.113.532.599 1.026.767-.44 1.017-.706 1.017-1.085 0-.395-.28-.661-.774-.661-.532 0-.842.296-.842.72zm2.071 3.227l-1.6-1.647c-.851.486-1.11.82-1.11 1.291 0 .576.517.957 1.284.957.577 0 1.063-.199 1.426-.6zm1.056 1.086l-.736-.759c-.448.478-1.056.721-1.777.721-1.04 0-1.784-.547-1.784-1.352 0-.63.365-1.092 1.337-1.654-.517-.532-.668-.85-.668-1.26 0-.676.524-1.13 1.343-1.13.751 0 1.237.393 1.237 1.055 0 .53-.32.903-1.184 1.404l1.458 1.503c.159-.281.28-.623.356-1.025l.44.136c-.098.478-.257.889-.47 1.222l.76.782-.312.357zM202.244 64.683c1.412 0 2.322-.895 2.322-2.17 0-1.276-.91-2.171-2.322-2.171h-1.571v4.341h1.571zm-2.134-4.827h2.165c1.7 0 2.846 1.093 2.846 2.657s-1.146 2.656-2.846 2.656h-2.165v-5.313zM206.37 65.169h.562v-5.313h-.562zM212.403 62.513h.54v2.027c-.502.447-1.215.675-1.952.675-1.616 0-2.801-1.146-2.801-2.702 0-1.557 1.185-2.702 2.81-2.702.804 0 1.502.258 1.973.766l-.35.356c-.448-.44-.98-.622-1.601-.622-1.314 0-2.278.934-2.278 2.202 0 1.26.964 2.2 2.27 2.2.509 0 .98-.114 1.389-.408v-1.792zM214.519 65.169h.562v-5.313h-.562zM217.84 60.342h-1.867v-.486h4.295v.486h-1.866v4.827h-.562zM224.022 63.295l-1.276-2.855-1.275 2.855h2.55zm.205.455h-2.961l-.637 1.42h-.585l2.429-5.314h.554l2.43 5.313h-.594l-.636-1.419zM226.327 59.856h.562v4.827h2.976v.486h-3.538zM69.893 32.39l-.015-.1c-.06-.83-.14-1.656-.262-2.474l-.041-.26C66.933 12.709 52.069 0 35 0 15.701 0 0 15.701 0 35.002c0 2.405.251 4.824.747 7.188C4.125 58.304 18.53 70 35 70c11.75 0 22.616-5.98 29.064-15.621 1.618-3.044.176-3.998.176-3.998-.284-.354-.996.035-1.64.517l-2.239 2.289-.002-.01c-1.533 1.887-3.117 3.62-4.758 5.132-5.984 5.05-10.99 6.596-12.361 6.944-2.941.558-5.798.84-8.494.84C9.819 66.094 3.394 42.4 3.138 41.41a32.662 32.662 0 01-.637-6.407C2.5 17.079 17.08 2.499 35 2.499c17.921 0 32.5 14.58 32.5 32.503 0 .59-.02 1.175-.049 1.704-.285 2.107-1.09 3.117-1.131 3.166-.517.676-2.095 2.734-3.488 3.033-.487 0-1.647-.657-1.862-6.746-.059-2.494-.17-3.561-1.028-4.049-.24-.18-.53-.28-.81-.28-1.09 0-2.114.354-5.416 4.945-.552.778-1.054 1.496-1.512 2.154-1 1.437-1.841 2.642-2.462 3.314.099-1.026.565-3.167 2.041-7.629 2.663-7.817 3.08-9.215 3.434-11.49.087-.465.13-.915.13-1.375 0-1.906-.851-3.092-2.219-3.092-.61 0-1.273.25-2.094.785-1.436.964-3.387 2.993-5.525 5.656l-1.778 2.298c-.391.527-.785 1.07-1.18 1.629.071-.13.136-.246.206-.37l-.003.004.035-.061c.239-.426.46-.815.652-1.14l1.665-2.912c-.03-.701-.537-1.226-1.216-1.226-.287 0-.552.07-.736.19-1.65.822-5.795 8.364-7.783 13.047-1.777 4.252-2.88 8.203-2.88 10.313 0 1.564.634 1.953.982 2.036.156.053.28.063.378.063h.064l.305-.06c.57-.188.877-.694.842-1.369v-.233c0-.346.127-1.12.265-1.622.193-.678 2.37-4.846 3.92-7.412 4.851-8.053 10.288-14.92 13.22-16.698l.045-.025c-.01 1.197-.53 2.911-2.729 9.007-1.844 5.15-2.778 8.96-2.778 11.33 0 1.655.448 2.671 1.36 3.103.25.13.521.192.829.192 1.3 0 2.537-1.241 5.509-5.537 1.94-2.814 3.084-4.323 3.89-5.123.011.416.011.91.011 1.29.06 2.579.122 3.533.3 4.644.699 4.01 2.633 4.61 3.725 4.61.607 0 1.26-.171 1.849-.478.065-.025 6.59-2.65 5.415-12.199z" mask="url(#b)"/></g></g></svg>