<svg xmlns="http://www.w3.org/2000/svg" width="342" height="341" viewBox="0 0 342 341"><title>Muir Edison</title><g fill="none" fill-rule="evenodd"><path fill="#66427F" d="m141.06 243.958 8.886 25.81c2.39 6.94 9.984 10.618 16.961 8.215l36.146-12.47 10.895 31.563a221.517 221.517 0 0 0 9.645-3.607c64.04-27.445 97.08-99.79 74.156-166.368C273.733 57.353 197.414 20.385 127.29 44.53l-.094.031c-.04.043-.08.081-.121.124-14.503 14.697-27.246 37.357-21.47 69.803l9.104 43.128c1.36 6.233.121 11.458-.22 13.611l-7.91 49.918c-1.568 9.902-4.113 22.046 17.519 14.598 6.977-2.403 14.571 1.276 16.96 8.214Z"/><path stroke="#50296A" stroke-width="2" d="m249.024 171.445-36.113-33.667c-1.559-1.456-5.656-4.73-8.356-10.348l-18.93-38.677c-15.068-28.45-38.508-38.232-58.511-40.823-.056-.01-.11-.013-.167-.022l-.093.032C58.35 71.528 21.833 145.888 45.295 214.027c22.395 65.04 91.343 100.86 157.147 83.472 0 0 4.797-1.372 9.597-3.025l-10.598-30.851 35.326-12.14c6.816-2.347 10.45-9.746 8.116-16.524l-8.682-25.213c-2.334-6.78 1.3-14.18 8.116-16.527 21.132-7.276 11.87-15.095 4.707-21.774Z"/></g></svg>